<?xml version="1.0" encoding="UTF-8" standalone="no"?>
<!-- Created with Inkscape (http://www.inkscape.org/) -->
<svg
   xmlns:svg="http://www.w3.org/2000/svg"
   xmlns="http://www.w3.org/2000/svg"
   xmlns:xlink="http://www.w3.org/1999/xlink"
   version="1.0"
   width="44.09"
   height="22.4"
   id="svg2170">
  <defs
     id="defs2172">
    <clipPath
       id="SVGID_2_">
		<use
   style="overflow:visible"
   id="use9"
   x="0"
   y="0"
   width="744.09448"
   height="1052.3622"
   xlink:href="#SVGID_1_" />

	</clipPath>
  </defs>
  <g
     transform="translate(-777.09957,-962.66385)"
     id="layer1">
    <g
       transform="translate(778.40746,964.12851)"
       id="g3">
	<defs
   id="defs5">
		<rect
   width="41.889999"
   height="20.65"
   x="0"
   y="0.037"
   id="SVGID_1_" />

	</defs>

	<clipPath
   id="clipPath2183">
		<use
   style="overflow:visible"
   id="use2185"
   x="0"
   y="0"
   width="744.09448"
   height="1052.3622"
   xlink:href="#SVGID_1_" />

	</clipPath>

	<path
   d="M 15.08,14.527 C 15.08,14.409 15.093,14.287 15.118,14.163 C 15.265,13.459 15.814,12.725 16.515,12.293 C 18.743,10.927 20.598,11.329 20.869,11.48 C 20.9,11.496 20.881,11.517 20.861,11.569 C 20.607,12.215 18.286,14.248 15.312,15.333 C 15.178,15.111 15.08,14.799 15.08,14.527 M 22.801,10.795 C 22.521,10.484 21.776,10.14 20.774,9.982 C 19.797,9.828 17.781,9.719 15.586,10.847 C 13.297,12.022 11.819,14.207 12.483,16.272 C 12.49,16.269 10.554,16.989 9.106,16.694 C 8.324,16.534 7.589,15.956 7.356,15.189 C 6.995,14.008 7.293,11.975 9.325,10.122 C 12.008,7.67 16.035,6.794 17.756,6.421 C 18.545,6.249 18.648,6.222 18.674,6.109 C 18.687,6.059 18.716,5.878 18.554,5.691 C 18.314,5.406 17.623,5.111 15.707,5.314 C 13.741,5.525 11.045,6.321 10.242,6.57 C 10.795,5.41 12.498,2.339 12.805,1.755 C 13.3,0.815 13.478,0.408 13.478,0.186 C 13.478,0.123 13.46,0.077 13.423,0.045 C 13.143,-0.212 11.536,0.654 10.307,2.102 C 9.072,3.555 8.418,4.72 7.451,6.252 C 6.375,7.959 3.003,8.821 1.371,9.269 C 0.938,9.386 0.807,9.407 0.752,9.466 C 0.698,9.526 0.679,9.606 0.706,9.69 C 0.843,10.168 1.672,10.687 2.526,10.727 C 3.148,10.754 3.886,10.657 5.035,10.337 C 4.419,11.316 3.378,13.469 3.378,15.527 C 3.378,17.129 4.115,19.029 7.237,19.325 C 9.698,19.558 12.082,18.684 13.755,18.043 C 15.648,19.509 18.219,19.433 18.224,19.433 C 24.824,19.433 27.889,14.143 28.453,13.162 C 28.451,13.172 29.058,15.134 30.209,16.72 C 31.787,18.896 33.973,19.581 36.214,19.375 C 38.881,19.127 40.592,17.062 40.754,16.679 C 40.834,16.492 40.749,16.288 40.264,16.548 C 39.848,16.772 39.402,17.105 38.296,17.313 C 33.352,18.247 31.879,13.112 30.816,10.916 C 30.671,10.601 30.54,10.375 30.408,10.318 C 30.105,10.202 27.776,10.609 27.52,11.106 C 24.925,15.93 21.555,17.003 18.997,17.04 C 18.14,17.053 17.422,16.878 16.845,16.578 C 17.846,16.083 18.553,15.701 19.275,15.221 C 21.928,13.455 22.893,11.564 22.893,10.953 C 22.886,10.883 22.847,10.843 22.801,10.795 z "
   style="fill:#034ea2"
   clip-path="url(#SVGID_2_)"
   id="path11" />

</g>
  </g>
</svg>
